<svg width="20" height="19" viewBox="0 0 20 19" fill="none" xmlns="http://www.w3.org/2000/svg">
<mask id="mask0_10_1433" style="mask-type:alpha" maskUnits="userSpaceOnUse" x="-2" y="-2" width="24" height="25">
<rect x="-2" y="-1.04624" width="24" height="24" fill="#D9D9D9"/>
</mask>
<g mask="url(#mask0_10_1433)">
<path d="M9 13.5694H11V8.14162H9V13.5694ZM10 6.33237C10.2833 6.33237 10.5208 6.24568 10.7125 6.07229C10.9042 5.8989 11 5.68406 11 5.42775C11 5.17144 10.9042 4.95659 10.7125 4.7832C10.5208 4.60981 10.2833 4.52312 10 4.52312C9.71667 4.52312 9.47917 4.60981 9.2875 4.7832C9.09583 4.95659 9 5.17144 9 5.42775C9 5.68406 9.09583 5.8989 9.2875 6.07229C9.47917 6.24568 9.71667 6.33237 10 6.33237ZM10 18.0925C8.61667 18.0925 7.31667 17.855 6.1 17.3801C4.88333 16.9052 3.825 16.2606 2.925 15.4465C2.025 14.6323 1.3125 13.6749 0.7875 12.5743C0.2625 11.4737 0 10.2976 0 9.04624C0 7.79485 0.2625 6.61883 0.7875 5.51821C1.3125 4.41758 2.025 3.46019 2.925 2.64603C3.825 1.83186 4.88333 1.18732 6.1 0.712392C7.31667 0.237464 8.61667 0 10 0C11.3833 0 12.6833 0.237464 13.9 0.712392C15.1167 1.18732 16.175 1.83186 17.075 2.64603C17.975 3.46019 18.6875 4.41758 19.2125 5.51821C19.7375 6.61883 20 7.79485 20 9.04624C20 10.2976 19.7375 11.4737 19.2125 12.5743C18.6875 13.6749 17.975 14.6323 17.075 15.4465C16.175 16.2606 15.1167 16.9052 13.9 17.3801C12.6833 17.855 11.3833 18.0925 10 18.0925ZM10 16.2832C12.2333 16.2832 14.125 15.5822 15.675 14.18C17.225 12.7778 18 11.0666 18 9.04624C18 7.02592 17.225 5.31467 15.675 3.9125C14.125 2.51033 12.2333 1.80925 10 1.80925C7.76667 1.80925 5.875 2.51033 4.325 3.9125C2.775 5.31467 2 7.02592 2 9.04624C2 11.0666 2.775 12.7778 4.325 14.18C5.875 15.5822 7.76667 16.2832 10 16.2832Z" fill="#1C1B1F"/>
</g>
</svg>
