<svg width="19" height="18" viewBox="0 0 19 18" fill="none" xmlns="http://www.w3.org/2000/svg">
<mask id="mask0_5_1271" style="mask-type:alpha" maskUnits="userSpaceOnUse" x="-4" y="-3" width="25" height="24">
<rect x="-3.21173" y="-3" width="24" height="24" fill="#D9D9D9"/>
</mask>
<g mask="url(#mask0_5_1271)">
<path d="M2.03257 18C1.47362 18 0.995114 17.8042 0.597068 17.4125C0.199023 17.0208 0 16.55 0 16V2C0 1.45 0.199023 0.979167 0.597068 0.5875C0.995114 0.195833 1.47362 0 2.03257 0H16.2606C16.8195 0 17.298 0.195833 17.6961 0.5875C18.0941 0.979167 18.2932 1.45 18.2932 2V16C18.2932 16.55 18.0941 17.0208 17.6961 17.4125C17.298 17.8042 16.8195 18 16.2606 18H2.03257ZM2.03257 16H16.2606V2H2.03257V16Z" fill="#1C1B1F"/>
</g>
</svg>
