<svg width="20" height="19" viewBox="0 0 20 19" fill="none" xmlns="http://www.w3.org/2000/svg">
<mask id="mask0_14_6" style="mask-type:alpha" maskUnits="userSpaceOnUse" x="-2" y="-2" width="24" height="24">
<rect x="-2" y="-2" width="24" height="24" fill="#007471"/>
</mask>
<g mask="url(#mask0_14_6)">
<path d="M2 15V17H18V15H2ZM2 4H4.2C4.11667 3.85 4.0625 3.69167 4.0375 3.525C4.0125 3.35833 4 3.18333 4 3C4 2.16667 4.29167 1.45833 4.875 0.875C5.45833 0.291667 6.16667 0 7 0C7.5 0 7.9625 0.129167 8.3875 0.3875C8.8125 0.645833 9.18333 0.966667 9.5 1.35L10 2L10.5 1.35C10.8 0.95 11.1667 0.625 11.6 0.375C12.0333 0.125 12.5 0 13 0C13.8333 0 14.5417 0.291667 15.125 0.875C15.7083 1.45833 16 2.16667 16 3C16 3.18333 15.9875 3.35833 15.9625 3.525C15.9375 3.69167 15.8833 3.85 15.8 4H18C18.55 4 19.0208 4.19583 19.4125 4.5875C19.8042 4.97917 20 5.45 20 6V17C20 17.55 19.8042 18.0208 19.4125 18.4125C19.0208 18.8042 18.55 19 18 19H2C1.45 19 0.979167 18.8042 0.5875 18.4125C0.195833 18.0208 0 17.55 0 17V6C0 5.45 0.195833 4.97917 0.5875 4.5875C0.979167 4.19583 1.45 4 2 4ZM2 12H18V6H12.9L15 8.85L13.4 10L10 5.4L6.6 10L5 8.85L7.05 6H2V12ZM7 4C7.28333 4 7.52083 3.90417 7.7125 3.7125C7.90417 3.52083 8 3.28333 8 3C8 2.71667 7.90417 2.47917 7.7125 2.2875C7.52083 2.09583 7.28333 2 7 2C6.71667 2 6.47917 2.09583 6.2875 2.2875C6.09583 2.47917 6 2.71667 6 3C6 3.28333 6.09583 3.52083 6.2875 3.7125C6.47917 3.90417 6.71667 4 7 4ZM13 4C13.2833 4 13.5208 3.90417 13.7125 3.7125C13.9042 3.52083 14 3.28333 14 3C14 2.71667 13.9042 2.47917 13.7125 2.2875C13.5208 2.09583 13.2833 2 13 2C12.7167 2 12.4792 2.09583 12.2875 2.2875C12.0958 2.47917 12 2.71667 12 3C12 3.28333 12.0958 3.52083 12.2875 3.7125C12.4792 3.90417 12.7167 4 13 4Z" fill="#007471"/>
</g>
</svg>
