<svg width="34" height="34" viewBox="0 0 34 34" fill="none" xmlns="http://www.w3.org/2000/svg">
<mask id="mask0_14_199" style="mask-type:alpha" maskUnits="userSpaceOnUse" x="-4" y="-4" width="42" height="42">
<rect x="-3.4" y="-3.40001" width="40.8" height="40.8" fill="#007471"/>
</mask>
<g mask="url(#mask0_14_199)">
<path d="M15.3 25.5H18.7V18.7H25.5V15.3H18.7V8.5H15.3V15.3H8.5V18.7H15.3V25.5ZM17 34C14.6483 34 12.4383 33.5537 10.37 32.6612C8.30166 31.7687 6.5025 30.5575 4.9725 29.0275C3.4425 27.4975 2.23125 25.6983 1.33875 23.63C0.44625 21.5617 0 19.3517 0 17C0 14.6483 0.44625 12.4383 1.33875 10.37C2.23125 8.30166 3.4425 6.5025 4.9725 4.9725C6.5025 3.4425 8.30166 2.23125 10.37 1.33875C12.4383 0.44625 14.6483 0 17 0C19.3517 0 21.5617 0.44625 23.63 1.33875C25.6983 2.23125 27.4975 3.4425 29.0275 4.9725C30.5575 6.5025 31.7687 8.30166 32.6612 10.37C33.5537 12.4383 34 14.6483 34 17C34 19.3517 33.5537 21.5617 32.6612 23.63C31.7687 25.6983 30.5575 27.4975 29.0275 29.0275C27.4975 30.5575 25.6983 31.7687 23.63 32.6612C21.5617 33.5537 19.3517 34 17 34ZM17 30.6C20.7967 30.6 24.0125 29.2825 26.6475 26.6475C29.2825 24.0125 30.6 20.7967 30.6 17C30.6 13.2033 29.2825 9.9875 26.6475 7.3525C24.0125 4.7175 20.7967 3.4 17 3.4C13.2033 3.4 9.9875 4.7175 7.3525 7.3525C4.7175 9.9875 3.4 13.2033 3.4 17C3.4 20.7967 4.7175 24.0125 7.3525 26.6475C9.9875 29.2825 13.2033 30.6 17 30.6Z" fill="#007471"/>
</g>
</svg>
